<svg xmlns="http://www.w3.org/2000/svg" version="1.1" xmlns:xlink="http://www.w3.org/1999/xlink" xmlns:svgjs="http://svgjs.dev/svgjs" width="1000" height="1069" viewBox="0 0 1000 1069"><g transform="matrix(1,0,0,1,0.14639009995244123,0.4327935222671613)"><svg viewBox="0 0 231 247" data-background-color="#303030" preserveAspectRatio="xMidYMid meet" height="1069" width="1000" xmlns="http://www.w3.org/2000/svg" xmlns:xlink="http://www.w3.org/1999/xlink"><g id="tight-bounds" transform="matrix(1,0,0,1,-0.03381611308901711,-0.09999999999999432)"><svg viewBox="0 0 231.06763222617803 247.2" height="247.2" width="231.06763222617803"><g><svg viewBox="0 0 231.06763222617803 247.2" height="247.2" width="231.06763222617803"><g><svg viewBox="0 0 231.06763222617803 247.2" height="247.2" width="231.06763222617803"><g><svg viewBox="0 0 89.62617801047121 247.2" height="247.2" width="89.62617801047121"><g id="textblocktransform"><svg viewBox="0 0 89.62617801047121 247.2" height="247.2" width="89.62617801047121" id="textblock"><g><svg viewBox="0 0 89.62617801047121 247.2" height="247.2" width="89.62617801047121"><g transform="matrix(1,0,0,1,0,0)"><svg width="89.62617801047121" viewBox="1.149999976158142 -38.20000076293945 13.850000381469727 38.20000076293945" height="247.2" data-palette-color="#535353"><path d="M15-27.4L15-23.65 9.25-23.65 9.25 0 4.7 0 4.7-23.65 1.15-23.65 1.15-27.4 4.7-27.4 4.7-29.35Q4.7-33.95 7.08-36.08 9.45-38.2 14.7-38.2L14.7-38.2 14.7-34.4Q11.7-34.4 10.48-33.23 9.25-32.05 9.25-29.35L9.25-29.35 9.25-27.4 15-27.4Z" opacity="1" transform="matrix(1,0,0,1,0,0)" fill="#535353" class="wordmark-text-0" data-fill-palette-color="primary" id="text-0"></path></svg></g></svg></g></svg></g></svg></g><g transform="matrix(1,0,0,1,147.9841652104712,92.54886471667808)"><svg viewBox="0 0 83.08346701570682 62.102270566643824" height="62.102270566643824" width="83.08346701570682"><g><svg xmlns="http://www.w3.org/2000/svg" xmlns:xlink="http://www.w3.org/1999/xlink" version="1.1" x="0" y="0" viewBox="1.100000023841858 13.400001525878906 97.80000305175781 73.1024169921875" enable-background="new 0 0 100 100" xml:space="preserve" height="62.102270566643824" width="83.08346701570682" class="icon-icon-0" data-fill-palette-color="accent" id="icon-0"><path d="M1.1 79.9v-4.1h5.4 0.3V33.2c0-3.4 2.7-6.1 6.1-6.1h23.7c-0.5 2-0.8 4.1-0.8 6.3 0 0.7 0 1.3 0.1 2H15v40.4h21.2v0.4c0 1.3 1 2.3 2.3 2.3h11.6c1.3 0 2.3-1 2.3-2.3v-0.4h21.2V58.5H79c1 0 2-0.1 3-0.2v17.4h0.3 5.4v4.1c0 3.7-3 6.7-6.7 6.7h-6.4H14.2 7.8C4.1 86.6 1.1 83.6 1.1 79.9zM40.8 33.4c0-11 9-20 20-20h18.1c11 0 20 9 20 20 0 11-9 20-20 20H65.4l-9.2 9.2c-0.6 0.6-1.7 0.2-1.7-0.7v-9.5C46.5 49.7 40.8 42.3 40.8 33.4zM52.7 33.5c0 1.1 0.2 2.1 0.6 3.1 0.4 1 1 1.9 1.8 2.7 0.8 0.8 1.7 1.4 2.7 1.8 1 0.4 2 0.6 3.1 0.6 1.1 0 2.1-0.2 3.1-0.6 1-0.4 1.9-1 2.7-1.8l0.6-0.6-2.6-2.6-0.6 0.6c-0.9 0.9-2 1.3-3.2 1.3-1.2 0-2.3-0.5-3.2-1.3-0.9-0.9-1.3-2-1.3-3.2s0.5-2.3 1.3-3.2c0.9-0.9 2-1.3 3.2-1.3 1.2 0 2.3 0.5 3.2 1.3l3.2 3.2 5.8 5.8c0.8 0.8 1.7 1.4 2.7 1.8 1 0.4 2 0.6 3.1 0.6 1.1 0 2.1-0.2 3.1-0.6 1-0.4 1.9-1 2.7-1.8 0.8-0.8 1.4-1.7 1.8-2.7 0.4-1 0.6-2 0.6-3.1 0-1.1-0.2-2.1-0.6-3.1-0.4-1-1-1.9-1.8-2.7-0.8-0.8-1.7-1.4-2.7-1.8-1-0.4-2-0.6-3.1-0.6-1.1 0-2.1 0.2-3.1 0.6-1 0.4-1.9 1-2.7 1.8l-0.7 0.7L75 31l0.7-0.7c0.9-0.9 2-1.3 3.2-1.3 1.2 0 2.3 0.5 3.2 1.3 0.9 0.9 1.3 2 1.3 3.2s-0.5 2.3-1.3 3.2c-0.9 0.9-2 1.3-3.2 1.3-1.2 0-2.3-0.5-3.2-1.3l-1.3-1.3-7.7-7.7c-0.8-0.8-1.7-1.4-2.7-1.8-1-0.4-2-0.6-3.1-0.6-1.1 0-2.1 0.2-3.1 0.6-1 0.4-1.9 1-2.7 1.8-0.8 0.8-1.4 1.7-1.8 2.7C52.9 31.4 52.7 32.4 52.7 33.5z" fill="#595959" data-fill-palette-color="accent"></path></svg></g></svg></g></svg></g></svg></g><defs></defs></svg><rect width="231.06763222617803" height="247.2" fill="none" stroke="none" visibility="hidden"></rect></g></svg></g></svg>